:SAMPLES-PER-SECOND 30
:FULLY-SPECIFIED
:DEGREES
621
root  -9.79863 38.9298 3.10261 -151.742 -84.956 149.462
RightUpLeg  -18.7209 -4.80156 -2.65011
RightLeg  -2.65461 2.16164 0.209963
RightFoot  -4.35568 -0.630255 9.76344
RightToes  -1.74624e-010 0 -3.6325e-017
Spine  7.0734 -0.638632 -2.26032
Spine1  5.05973 -0.700823 -0.573643
HEad  -17.713 1.63005 -3.49339
LeftShoulder1  -0.613294 5.08276 -32.6919
LeftArm  -5.32383 13.1767 -30.7107
LeftForeArm  30.1473 -8.50646 -7.46714
LeftHand  -0.0423153 8.32301 0.125906
RightShoulder  -1.05183 -6.32214 30.7693
RightArm  11.671 -23.2852 35.5704
RightForeArm  16.7311 11.5851 4.50652
RightHand  -0.0356677 3.0119 -0.721307
LeftUpLeg  9.82467 6.57393 -4.30629
LeftLeg  9.87563 4.96966 0.123148
LeftFoot  -17.4162 0.386892 5.31034
LeftToes  2.27646e-009 -8.13696e-011 -1.44715e-011
622
root  -10.84 38.6732 3.10822 -146.373 -85.3153 143.917
RightUpLeg  -19.45 -4.74536 -2.48644
RightLeg  -0.726451 0.817217 0.330324
RightFoot  -3.51159 -0.570399 8.07931
RightToes  -1.74624e-010 0 -3.6325e-017
Spine  6.97699 -0.704756 -1.51898
Spine1  5.53653 -0.737053 -0.634258
HEad  -17.6584 1.4978 -3.46068
LeftShoulder1  -0.640672 5.14652 -32.8421
LeftArm  -3.74713 12.1092 -32.4412
LeftForeArm  28.9132 -10.8598 -7.38522
LeftHand  -0.0561519 8.10337 -0.462314
RightShoulder  -1.04662 -6.30578 30.797
RightArm  11.595 -21.2723 36.0052
RightForeArm  17.3071 10.8794 4.69113
RightHand  -0.0108767 3.27855 -0.384413
LeftUpLeg  11.4463 6.61005 -4.43199
LeftLeg  10.6029 4.47954 0.305766
LeftFoot  -19.2163 0.453903 4.92881
LeftToes  2.27646e-009 -8.13696e-011 -1.44715e-011
623
root  -11.9314 38.4895 3.09668 -147.833 -86.2015 145.22
RightUpLeg  -20.6396 -4.66385 -1.67367
RightLeg  4.27647 -1.20977 0.556767
RightFoot  0.52567 -0.385073 3.89575
RightToes  -1.74624e-010 0 -3.6325e-017
Spine  6.98387 -0.834625 -0.0453234
Spine1  6.00579 -1.01121 0.0919619
HEad  -17.4885 1.46848 -3.47955
LeftShoulder1  -0.664959 5.17276 -33.6807
LeftArm  -0.387 11.2691 -33.6445
LeftForeArm  26.2439 -13.8516 -6.97969
LeftHand  -0.0422952 7.16501 -0.200864
RightShoulder  -1.03145 -6.2795 30.5928
RightArm  11.6765 -18.7932 36.5956
RightForeArm  17.6459 10.2466 4.96051
RightHand  -0.0158261 3.6161 -0.455255
LeftUpLeg  13.4708 6.82682 -3.5147
LeftLeg  10.7342 3.45667 0.434846
LeftFoot  -20.7033 0.458909 4.06746
LeftToes  2.27646e-009 -8.13696e-011 -1.44715e-011
624
root  -13.0971 38.3575 3.06576 -162.721 -87.5465 159.948
RightUpLeg  -21.6234 -4.98943 -0.46208
RightLeg  8.92086 -0.537754 0.56824
RightFoot  5.54699 -0.122743 0.984994
RightToes  -1.74624e-010 0 -3.6325e-017
Spine  7.05083 -1.17429 2.34204
Spine1  6.22266 -1.33127 0.370462
HEad  -17.4222 0.970239 -3.42326
LeftShoulder1  -0.655502 5.14489 -33.7803
LeftArm  3.13388 10.8745 -35.3905
LeftForeArm  23.9211 -16.9655 -5.90088
LeftHand  -0.043534 7.2056 -0.351864
RightShoulder  -1.1263 -6.48441 31.2515
RightArm  12.2797 -15.3711 36.5505
RightForeArm  17.6014 9.38834 5.41744
RightHand  -0.0391815 3.96918 -0.763069
LeftUpLeg  15.4397 6.51483 -2.04435
LeftLeg  11.1603 2.52396 0.885385
LeftFoot  -21.7333 0.412013 3.12313
LeftToes  2.27646e-009 -8.13696e-011 -1.44715e-011
625
root  -14.3538 38.1632 2.98851 165.018 -88.2022 -167.786
RightUpLeg  -22.9299 -5.30838 1.06927
RightLeg  14.8906 -0.0836717 0.100958
RightFoot  6.19425 -0.0798217 0.775248
RightToes  -1.74624e-010 0 -3.6325e-017
Spine  7.22003 -1.4203 5.08597
Spine1  5.24358 -1.28821 -0.256227
HEad  -17.2546 0.692028 -3.64423
LeftShoulder1  -0.636132 5.08065 -34.1693
LeftArm  7.85099 11.1698 -36.7374
LeftForeArm  20.489 -21.1393 -4.41139
LeftHand  -0.0378662 7.87237 0.384907
RightShoulder  -1.09596 -6.39911 31.3042
RightArm  12.352 -12.2614 37.2717
RightForeArm  17.5729 8.42926 5.75923
RightHand  -0.0584774 3.17132 -1.02431
LeftUpLeg  15.8296 5.55324 -0.491348
LeftLeg  14.7352 2.13186 1.33736
LeftFoot  -22.8768 0.199837 0.615837
LeftToes  2.27646e-009 -8.13696e-011 -1.44715e-011
626
root  -15.5987 38.0583 2.88794 147.098 -86.9433 -150.017
RightUpLeg  -23.6141 -4.05692 2.42656
RightLeg  20.2038 0.0176169 -0.245229
RightFoot  4.34433 0.243243 -1.56067
RightToes  -1.74624e-010 0 -3.6325e-017
Spine  6.94992 -1.07021 7.72704
Spine1  5.53445 -0.553032 -1.10343
HEad  -17.3016 0.578337 -3.4329
LeftShoulder1  -0.609228 5.01649 -34.0957
LeftArm  9.86692 11.1575 -38.086
LeftForeArm  18.8836 -23.8617 -4.04583
LeftHand  -0.0181177 6.1815 1.64871
RightShoulder  -1.08886 -6.3365 31.871
RightArm  11.9448 -8.07464 38.1515
RightForeArm  18.0954 7.26109 5.89104
RightHand  -0.0517081 3.242 -0.93795
LeftUpLeg  16.1086 5.15543 0.965312
LeftLeg  18.8523 1.78755 1.00624
LeftFoot  -22.4035 -0.1772 -3.21389
LeftToes  2.27646e-009 -8.13696e-011 -1.44715e-011
627
root  -16.7234 38.0095 2.71798 138.461 -86.67 -141.422
RightUpLeg  -23.5494 -3.29885 3.05472
RightLeg  23.9144 -0.737378 -0.584061
RightFoot  1.70892 0.362533 -3.05816
RightToes  -1.74624e-010 0 -3.6325e-017
Spine  6.82483 -0.996646 8.68524
Spine1  5.57696 -0.408924 -0.158193
HEad  -17.006 0.285176 -3.05158
LeftShoulder1  -0.664467 5.13293 -34.6107
LeftArm  11.7062 10.6034 -38.5514
LeftForeArm  16.0982 -24.6161 -4.41758
LeftHand  -0.00331452 7.13733 2.21289
RightShoulder  -1.02673 -6.19362 31.5949
RightArm  11.3033 -3.9139 40.137
RightForeArm  18.5889 5.91833 5.93317
RightHand  -0.0604249 2.76544 -1.07933
LeftUpLeg  14.2318 5.07991 2.55964
LeftLeg  25.9635 -0.652644 -0.0198698
LeftFoot  -19.8056 -0.42368 -7.60959
LeftToes  2.27646e-009 -8.13696e-011 -1.44715e-011
628
root  -17.7764 38.0662 2.55028 121.809 -86.8304 -124.822
RightUpLeg  -22.5766 -3.01779 3.59022
RightLeg  25.8959 -1.86608 -1.21934
RightFoot  -0.599378 0.350293 -3.74634
RightToes  -1.74624e-010 0 -3.6325e-017
Spine  6.76357 -1.15779 10.2557
Spine1  5.32182 -0.168074 -0.484162
HEad  -16.4344 -0.101899 -2.74047
LeftShoulder1  -0.570171 4.91524 -34.224
LeftArm  13.071 10.1814 -39.4789
LeftForeArm  14.019 -24.1002 -4.41931
LeftHand  0.00623943 7.13759 2.76405
RightShoulder  -1.08123 -6.32798 31.7236
RightArm  10.6911 -0.53676 41.9175
RightForeArm  19.7316 6.64427 5.83873
RightHand  0.00671304 2.65127 -0.0828858
LeftUpLeg  10.2803 3.88471 3.80636
LeftLeg  35.3346 -1.88764 -1.07729
LeftFoot  -13.2364 -0.119181 -11.2727
LeftToes  2.27646e-009 -8.13696e-011 -1.44715e-011
629
root  -18.7742 38.1559 2.41768 104.133 -86.8505 -106.85
RightUpLeg  -21.5571 -2.90564 3.99651
RightLeg  26.9104 -2.78441 -1.77363
RightFoot  -2.6841 0.261456 -3.6956
RightToes  -1.74624e-010 0 -3.6325e-017
Spine  6.35102 -1.32199 12.1325
Spine1  4.97798 0.177456 -1.66763
HEad  -16.0137 -1.02982 -2.47399
LeftShoulder1  -0.525768 4.81984 -33.7953
LeftArm  13.6075 10.1839 -40.0201
LeftForeArm  13.8896 -23.6762 -4.34357
LeftHand  0.0018437 7.37707 2.2356
RightShoulder  -1.0282 -6.22293 31.2426
RightArm  10.324 2.18255 44.1897
RightForeArm  20.0387 8.63561 5.694
RightHand  0.0739843 2.34752 0.928272
LeftUpLeg  4.49397 2.84194 4.68344
LeftLeg  45.445 -1.85592 -1.57494
LeftFoot  -3.22062 0.639044 -9.44012
LeftToes  2.27646e-009 -8.13696e-011 -1.44715e-011
630
root  -19.7551 38.2998 2.30291 99.2224 -86.9285 -102.181
RightUpLeg  -19.6868 -2.94046 4.01479
RightLeg  27.2721 -3.03248 -1.9389
RightFoot  -4.56202 0.18974 -3.71216
RightToes  -1.74624e-010 0 -3.6325e-017
Spine  6.26141 -1.18263 13.2317
Spine1  5.23813 0.731075 -2.40417
HEad  -16.4635 -2.0921 -2.41089
LeftShoulder1  -0.540706 4.84835 -34.0543
LeftArm  13.7542 10.4958 -39.7503
LeftForeArm  14.2353 -23.2976 -4.28195
LeftHand  -0.0147996 6.81749 1.66612
RightShoulder  -0.968939 -6.10025 30.7427
RightArm  12.3057 5.17701 45.8114
RightForeArm  15.7699 11.691 5.83925
RightHand  0.00708559 4.06848 -0.192595
LeftUpLeg  -0.486866 2.1022 4.65116
LeftLeg  53.2185 -0.965682 -0.921278
LeftFoot  3.55406 0.68892 -5.21162
LeftToes  2.27646e-009 -8.13696e-011 -1.44715e-011
631
root  -20.7787 38.5773 2.1828 96.7194 -87.3432 -100.195
RightUpLeg  -16.7434 -3.01241 3.63741
RightLeg  26.2544 -3.17194 -1.94789
RightFoot  -5.9328 0.126477 -3.53426
RightToes  -1.74624e-010 0 -3.6325e-017
Spine  6.27009 -0.875143 13.5664
Spine1  5.44111 1.31124 -3.00766
HEad  -16.6474 -2.76933 -2.59869
LeftShoulder1  -0.486632 4.71239 -34.1021
LeftArm  13.2758 11.6868 -39.4247
LeftForeArm  14.5622 -22.839 -4.30773
LeftHand  -0.0118376 6.83825 1.83777
RightShoulder  -0.957121 -6.08443 30.5098
RightArm  16.3978 8.58344 46.7291
RightForeArm  11.1512 15.0901 5.7257
RightHand  -0.0881355 4.77113 -1.29254
LeftUpLeg  -4.40571 1.55775 4.47407
LeftLeg  57.8997 -0.580909 -0.491926
LeftFoot  1.28326 0.524563 -4.81563
LeftToes  2.27646e-009 -8.13696e-011 -1.44715e-011
